<?xml version="1.0" encoding="utf-8"?>
<svg version="1.1" xmlns:xlink="http://www.w3.org/1999/xlink" width="22px" height="24px" xmlns="http://www.w3.org/2000/svg">
  <g>
    <path d="M 22 2  C 22 0.899999976158142  21.1000000238419 0  20 0  C 20 0  2 0  2 0  C 0.899999976158142 0  0 0.899999976158142  0 2  C 0 2  0 22  0 22  C 0 23.1000000238419  0.899999976158142 24  2 24  C 2 24  20 24  20 24  C 21.1000000238419 24  22 23.1000000238419  22 22  C 22 22  22 2  22 2  Z M 18 17  L 18 19  L 4 19  L 4 17  L 18 17  Z M 18 11  L 18 13  L 4 13  L 4 11  L 18 11  Z M 18 5  L 18 7  L 4 7  L 4 5  L 18 5  Z " fill-rule="nonzero" fill="#b4b6bd" stroke="none" />
  </g>
</svg>