<?xml version="1.0" encoding="utf-8"?>
<svg version="1.1" xmlns:xlink="http://www.w3.org/1999/xlink" width="222px" height="58px" xmlns="http://www.w3.org/2000/svg">
  <defs>
    <mask fill="white" id="clip220">
      <path d="M 0 50.75  L 0 7.25  C 0 3.18999999999998  3.4885714285715 0  7.92857142857143 0  L 214.071428571429 0  C 218.511428571428 0  222 3.18999999999998  222 7.25  L 222 50.75  C 222 54.81  218.511428571428 58  214.071428571429 58  L 127.385714285712 58  L 7.92857142857143 58  C 3.4885714285715 58  0 54.81  0 50.75  Z " fill-rule="evenodd" />
    </mask>
  </defs>
  <g transform="matrix(1 0 0 1 -1688 -28 )">
    <path d="M 0 50.75  L 0 7.25  C 0 3.18999999999998  3.4885714285715 0  7.92857142857143 0  L 214.071428571429 0  C 218.511428571428 0  222 3.18999999999998  222 7.25  L 222 50.75  C 222 54.81  218.511428571428 58  214.071428571429 58  L 127.385714285712 58  L 7.92857142857143 58  C 3.4885714285715 58  0 54.81  0 50.75  Z " fill-rule="nonzero" fill="#ffffff" stroke="none" transform="matrix(1 0 0 1 1688 28 )" />
    <path d="M 0 50.75  L 0 7.25  C 0 3.18999999999998  3.4885714285715 0  7.92857142857143 0  L 214.071428571429 0  C 218.511428571428 0  222 3.18999999999998  222 7.25  L 222 50.75  C 222 54.81  218.511428571428 58  214.071428571429 58  L 127.385714285712 58  L 7.92857142857143 58  C 3.4885714285715 58  0 54.81  0 50.75  Z " stroke-width="2" stroke="#797979" fill="none" transform="matrix(1 0 0 1 1688 28 )" mask="url(#clip220)" />
  </g>
</svg>