<?xml version="1.0" encoding="utf-8"?>
<svg version="1.1" xmlns:xlink="http://www.w3.org/1999/xlink" width="299px" height="100px" xmlns="http://www.w3.org/2000/svg">
  <defs>
    <mask fill="white" id="clip224">
      <path d="M 0 87.5  L 0 12.5  C 0 5.49999999999997  4.69857142857153 0  10.6785714285714 0  L 170.145238095233 0  L 288.321428571429 0  C 294.301428571428 0  299 5.49999999999997  299 12.5  L 299 87.5  C 299 94.4999999999999  294.301428571428 100  288.321428571429 100  L 227.097619047616 100  L 161.602380952376 100  L 10.6785714285714 100  C 4.69857142857153 100  0 94.4999999999999  0 87.5  Z " fill-rule="evenodd" />
    </mask>
  </defs>
  <g transform="matrix(1 0 0 1 -566 -1504 )">
    <path d="M 0 87.5  L 0 12.5  C 0 5.49999999999997  4.69857142857153 0  10.6785714285714 0  L 170.145238095233 0  L 288.321428571429 0  C 294.301428571428 0  299 5.49999999999997  299 12.5  L 299 87.5  C 299 94.4999999999999  294.301428571428 100  288.321428571429 100  L 227.097619047616 100  L 161.602380952376 100  L 10.6785714285714 100  C 4.69857142857153 100  0 94.4999999999999  0 87.5  Z " fill-rule="nonzero" fill="#1296db" stroke="none" fill-opacity="0" transform="matrix(1 0 0 1 566 1504 )" />
    <path d="M 0 87.5  L 0 12.5  C 0 5.49999999999997  4.69857142857153 0  10.6785714285714 0  L 170.145238095233 0  L 288.321428571429 0  C 294.301428571428 0  299 5.49999999999997  299 12.5  L 299 87.5  C 299 94.4999999999999  294.301428571428 100  288.321428571429 100  L 227.097619047616 100  L 161.602380952376 100  L 10.6785714285714 100  C 4.69857142857153 100  0 94.4999999999999  0 87.5  Z " stroke-width="6" stroke="#1296db" fill="none" transform="matrix(1 0 0 1 566 1504 )" mask="url(#clip224)" />
  </g>
</svg>