<?xml version="1.0" encoding="utf-8"?>
<svg version="1.1" xmlns:xlink="http://www.w3.org/1999/xlink" width="170px" height="51px" xmlns="http://www.w3.org/2000/svg">
  <defs>
    <mask fill="white" id="clip225">
      <path d="M 0 44.625  L 0 6.375  C 0 2.80499999999999  2.67142857142863 0  6.07142857142857 0  L 96.7380952380923 0  L 163.928571428571 0  C 167.328571428571 0  170 2.80499999999999  170 6.375  L 170 44.625  C 170 48.1949999999999  167.328571428571 51  163.928571428571 51  L 129.119047619046 51  L 91.8809523809494 51  L 6.07142857142857 51  C 2.67142857142863 51  0 48.1949999999999  0 44.625  Z " fill-rule="evenodd" />
    </mask>
  </defs>
  <g transform="matrix(1 0 0 1 -1121 -1358 )">
    <path d="M 0 44.625  L 0 6.375  C 0 2.80499999999999  2.67142857142863 0  6.07142857142857 0  L 96.7380952380923 0  L 163.928571428571 0  C 167.328571428571 0  170 2.80499999999999  170 6.375  L 170 44.625  C 170 48.1949999999999  167.328571428571 51  163.928571428571 51  L 129.119047619046 51  L 91.8809523809494 51  L 6.07142857142857 51  C 2.67142857142863 51  0 48.1949999999999  0 44.625  Z " fill-rule="nonzero" fill="#1296db" stroke="none" fill-opacity="0" transform="matrix(1 0 0 1 1121 1358 )" />
    <path d="M 0 44.625  L 0 6.375  C 0 2.80499999999999  2.67142857142863 0  6.07142857142857 0  L 96.7380952380923 0  L 163.928571428571 0  C 167.328571428571 0  170 2.80499999999999  170 6.375  L 170 44.625  C 170 48.1949999999999  167.328571428571 51  163.928571428571 51  L 129.119047619046 51  L 91.8809523809494 51  L 6.07142857142857 51  C 2.67142857142863 51  0 48.1949999999999  0 44.625  Z " stroke-width="6" stroke="#7f7f7f" fill="none" transform="matrix(1 0 0 1 1121 1358 )" mask="url(#clip225)" />
  </g>
</svg>