<?xml version="1.0" encoding="utf-8"?>
<svg version="1.1" xmlns:xlink="http://www.w3.org/1999/xlink" width="206px" height="69px" xmlns="http://www.w3.org/2000/svg">
  <defs>
    <mask fill="white" id="clip221">
      <path d="M 0 60.375  L 0 8.625  C 0 3.79499999999998  3.23714285714292 0  7.35714285714286 0  L 117.223809523806 0  L 198.642857142857 0  C 202.762857142857 0  206 3.79499999999998  206 8.625  L 206 60.375  C 206 65.2049999999999  202.762857142857 69  198.642857142857 69  L 156.461904761903 69  L 111.338095238092 69  L 7.35714285714286 69  C 3.23714285714292 69  0 65.2049999999999  0 60.375  Z " fill-rule="evenodd" />
    </mask>
  </defs>
  <g transform="matrix(1 0 0 1 -380 -1204 )">
    <path d="M 0 60.375  L 0 8.625  C 0 3.79499999999998  3.23714285714292 0  7.35714285714286 0  L 117.223809523806 0  L 198.642857142857 0  C 202.762857142857 0  206 3.79499999999998  206 8.625  L 206 60.375  C 206 65.2049999999999  202.762857142857 69  198.642857142857 69  L 156.461904761903 69  L 111.338095238092 69  L 7.35714285714286 69  C 3.23714285714292 69  0 65.2049999999999  0 60.375  Z " fill-rule="nonzero" fill="#1296db" stroke="none" fill-opacity="0" transform="matrix(1 0 0 1 380 1204 )" />
    <path d="M 0 60.375  L 0 8.625  C 0 3.79499999999998  3.23714285714292 0  7.35714285714286 0  L 117.223809523806 0  L 198.642857142857 0  C 202.762857142857 0  206 3.79499999999998  206 8.625  L 206 60.375  C 206 65.2049999999999  202.762857142857 69  198.642857142857 69  L 156.461904761903 69  L 111.338095238092 69  L 7.35714285714286 69  C 3.23714285714292 69  0 65.2049999999999  0 60.375  Z " stroke-width="6" stroke="#1296db" fill="none" transform="matrix(1 0 0 1 380 1204 )" mask="url(#clip221)" />
  </g>
</svg>