<?xml version="1.0" encoding="utf-8"?>
<svg version="1.1" xmlns:xlink="http://www.w3.org/1999/xlink" width="21px" height="21px" xmlns="http://www.w3.org/2000/svg">
  <g transform="matrix(1 0 0 1 -617 -133 )">
    <path d="M 12.25 1.75  C 12.25 0.783501744270325  11.4664982557297 0  10.5 0  C 9.53350174427032 0  8.75 0.783501327037811  8.75 1.74999958276749  C 8.75 1.74999958276749  8.75 8.74999916553497  8.75 8.74999916553497  C 8.75 8.74999916553497  1.75 8.74999916553497  1.75 8.74999916553497  C 0.783501744270325 8.74999916553497  0 9.5335009098053  0 10.499999165535  C 0 11.4664974212646  0.783501222729683 12.249999165535  1.74999947845936 12.249999165535  C 1.74999947845936 12.249999165535  8.75 12.249999165535  8.75 12.249999165535  C 8.75 12.249999165535  8.75 19.25  8.75 19.25  C 8.75 20.2164974212646  9.53350174427032 21  10.5 21  C 11.4664982557297 21  12.25 20.2164990901947  12.25 19.25  C 12.25 19.25  12.25 12.25  12.25 12.25  C 12.25 12.25  19.25 12.25  19.25 12.25  C 20.2164974212646 12.25  21 11.4664982557297  21 10.5  C 21 9.53350174427032  20.2164990901947 8.75  19.25 8.75  C 19.25 8.75  12.25 8.75  12.25 8.75  C 12.25 8.75  12.25 1.75  12.25 1.75  Z " fill-rule="nonzero" fill="#808187" stroke="none" transform="matrix(1 0 0 1 617 133 )" />
  </g>
</svg>